<svg width="23" height="24" fill="none" xmlns="http://www.w3.org/2000/svg"><path opacity=".3" d="M11.5 21.818C5.149 21.818 0 16.933 0 10.91v2.182C0 19.115 5.149 24 11.5 24 17.85 24 23 19.115 23 13.09v-2.18c0 6.023-5.15 10.908-11.5 10.908Z" fill="#ABABAB"/><path d="M11.5 21.818c6.351 0 11.5-4.884 11.5-10.909S17.851 0 11.5 0 0 4.884 0 10.91c0 6.024 5.149 10.908 11.5 10.908Z" fill="#fff"/><path d="M11.5 13.09c1.27 0 2.3-.976 2.3-2.18 0-1.206-1.03-2.183-2.3-2.183-1.27 0-2.3.977-2.3 2.182s1.03 2.182 2.3 2.182Z" fill="#ABABAB"/></svg>
